<svg height="512" viewBox="0 0 64 64" width="512" xmlns="http://www.w3.org/2000/svg"><g id="book-cloud-download-education"><path d="m3 23h58v38h-58z" fill="#d80027"/><path d="m7 21h50v36h-50z" fill="#fff"/><path d="m53 17a7.01 7.01 0 0 1 -7 7h-28a7 7 0 0 1 0-14 7.157 7.157 0 0 1 1.68.21 10.974 10.974 0 0 1 17.63-4.41 4.982 4.982 0 0 1 7.69 4.2c0 .03-.01.05-.01.08a6.767 6.767 0 0 1 1.01-.08 7 7 0 0 1 7 7z" fill="#2488ff"/><path d="m39 29-7 8-7-8h5l-.89-5.35-1.11-6.65h8l-1.11 6.65-.89 5.35z" fill="#ffda44"/><path d="m61 22h-3v-1a1 1 0 0 0 -1-1h-3.59a7.9 7.9 0 0 0 .59-3 8 8 0 0 0 -8.08-8 6.017 6.017 0 0 0 -5.92-5 5.866 5.866 0 0 0 -2.57.59 11.968 11.968 0 0 0 -18.36 4.49 7.989 7.989 0 0 0 -9.07 7.92 7.9 7.9 0 0 0 .59 3h-3.59a1 1 0 0 0 -1 1v1h-3a1 1 0 0 0 -1 1v38a1 1 0 0 0 1 1h58a1 1 0 0 0 1-1v-38a1 1 0 0 0 -1-1zm-53 0h3.76a7.986 7.986 0 0 0 6.24 3h9v-2h-9a6 6 0 1 1 1.44-11.82.984.984 0 0 0 1.18-.62 10.038 10.038 0 0 1 9.38-6.56 9.938 9.938 0 0 1 6.64 2.54 1.009 1.009 0 0 0 1.21.1 3.947 3.947 0 0 1 2.15-.64 4.008 4.008 0 0 1 4 3.95c0 .04-.01.08-.01.11a1.007 1.007 0 0 0 .34.77 1.023 1.023 0 0 0 .8.24 5.826 5.826 0 0 1 .87-.07 6 6 0 0 1 0 12h-9v2h9a7.986 7.986 0 0 0 6.24-3h3.76v34h-23v-16h-2v16h-23zm52 38h-56v-36h2v33a1 1 0 0 0 1 1h50a1 1 0 0 0 1-1v-33h2z"/><path d="m39.91 28.59a1 1 0 0 0 -.91-.59h-3.82l1.81-10.84a1.039 1.039 0 0 0 -.23-.81 1.011 1.011 0 0 0 -.76-.35h-8a1.011 1.011 0 0 0 -.76.35 1.039 1.039 0 0 0 -.23.81l1.81 10.84h-3.82a1 1 0 0 0 -.75 1.66l7 8a1 1 0 0 0 1.5 0l7-8a1 1 0 0 0 .16-1.07zm-7.91 6.89-4.8-5.48h2.8a1.011 1.011 0 0 0 .76-.35 1.039 1.039 0 0 0 .23-.81l-1.81-10.84h5.64l-1.81 10.84a1.039 1.039 0 0 0 .23.81 1.011 1.011 0 0 0 .76.35h2.8z"/><path d="m10 31h10v2h-10z"/><path d="m10 36h12v2h-12z"/><path d="m10 41h12v2h-12z"/><path d="m10 46h19v2h-19z"/><path d="m10 51h19v2h-19z"/><path d="m24 41h5v2h-5z"/><path d="m44 31h10v2h-10z"/><path d="m42 36h12v2h-12z"/><path d="m42 41h12v2h-12z"/><path d="m35 46h19v2h-19z"/><path d="m35 51h19v2h-19z"/><path d="m35 41h5v2h-5z"/></g></svg>